# xmcd
#
# Track frame offsets: 
#        150
#        17097
#        33912
#        53787
#        70912
#        87242
#        103650
#        121150
#        136807
#        154125
#        169787
#        188935
#        206600
#        221667
#        238257
#
# Disc length: 3435 seconds
#
# Revision: 9
# Processed by: cddbd v1.5.2PL0 Copyright (c) Steve Scherf et al.
# Submitted via: ExactAudioCopy v1.0b1
#
DISCID=d00d690f
DTITLE=鄧麗君 - 鄧麗君珍藏集 Disc 4
DYEAR=2003
DGENRE=Oldies
TTITLE0=情人的關懷
TTITLE1=淚的小雨
TTITLE2=襟裳岬
TTITLE3=愛人
TTITLE4=絲絲小雨
TTITLE5=小村之戀
TTITLE6=愛像一首歌
TTITLE7=一封情書
TTITLE8=償還
TTITLE9=再見！我的愛人
TTITLE10=我只在乎你
TTITLE11=我和你
TTITLE12=愛的使者
TTITLE13=冬之戀情
TTITLE14=誰來愛我
EXTD=YEAR: 2003
EXTT0=
EXTT1=
EXTT2=
EXTT3=
EXTT4=
EXTT5=
EXTT6=
EXTT7=
EXTT8=
EXTT9=
EXTT10=
EXTT11=
EXTT12=
EXTT13=
EXTT14=
PLAYORDER=
